<svg xmlns="http://www.w3.org/2000/svg" viewBox="0 0 32.37 72.52"><defs><style>.cls-1{fill:#231f20;}</style></defs><g id="Layer_2" data-name="Layer 2"><g id="Layer_1-2" data-name="Layer 1"><path class="cls-1" d="M27.73,37.77c1.11-2.1,1.52-3,2.56-5.09a23.92,23.92,0,0,0,1.92-4.49A6.8,6.8,0,0,0,32,24.58s-.6-.38-.86-.21a1.84,1.84,0,0,0-.44.52c-1.37,2.18-2.74,4.41-3.9,6.71s-4,8-4.45,8.72c-.13.18-.44.82-.82.84s-.7-.62-.9-1l-1-1.65q-1-1.65-2-3.27c-1-1.55-1.93-3.11-2.94-4.63-.51-.75-1-1.49-1.56-2.21a6.79,6.79,0,0,0-1.92-2.07,11.2,11.2,0,0,1-2.39-1.23c-.07-.51,1.4-1.24,1.69-1.53,5.85-5.88,7.92-8.81,12.27-13.81,1.86-2.14,3.83-5.66,2.88-8.66A1.42,1.42,0,0,0,24.48,0a2.84,2.84,0,0,0-.95.25c-.35.13-.55.2-1.72.66l-.3.12c-1.51.6-1.75.6-2.31.9-.89.48-1.11.79-1.17,1.09a1.32,1.32,0,0,0,.23.94c.47.75,1.52,1,1.38,2a4.87,4.87,0,0,1-.82,1.9c-.59,1-1.31,1.83-2,2.76-1.21,1.69-2.55,3.28-3.82,4.93s-2.59,3.59-4,5.28a15.76,15.76,0,0,1-2.29,2.4c-.68.54-1.37.3-1.23-.64.69-4.6,1-9.33,2-13.89a65.74,65.74,0,0,0,1-6.56c.07-.68-.12-1-.83-.65a21.22,21.22,0,0,0-1.9,1.14A9.5,9.5,0,0,0,3.05,5.13c-1.24,2-1,4.47-1.1,6.72-.13,2.63-.37,5.25-.61,7.87-.1,1.05-.2,2.09-.29,3.14-.13,1.37.48,2.72.24,4.09-.15.87-.34,1.73-.43,2.6a107.37,107.37,0,0,0-.75,11.1A24.27,24.27,0,0,0,0,43.84a2.29,2.29,0,0,0,.51,1.43c.47.43,1.25.09,1.71-.18A3.9,3.9,0,0,0,3.7,43.57a4.62,4.62,0,0,0,.43-1.14,18.59,18.59,0,0,0,.26-3.8c0-1.32,0-2.63.07-3.94s.1-2.35.24-3.52c.11-.84.13-3.75,1.64-2.45a19.73,19.73,0,0,1,3,3.34c1.43,1.91,2.76,3.9,4,5.93s2.61,4.22,3.76,6.4c.08.15.18.29.26.44.33.61-.08.93-.38,1.42s-.51.84-.77,1.26c-.51.81-1,1.61-1.55,2.42-1.32,2-2.71,4-4.17,5.92C9.64,57,8.8,58.1,8,59.28a13.52,13.52,0,0,0-2.2,4.57,12.79,12.79,0,0,0-.12,3.33c.09,1.21.19,3.57,2.07,3a3.83,3.83,0,0,0,1.43-.94l4.16-3.75c.53-.48,5.4-5.3,8.89-8.94a.08.08,0,0,0,0,.05,58.91,58.91,0,0,1,2.06,7,8,8,0,0,1-.28,3.23,4.65,4.65,0,0,0,.06,2.74,6.13,6.13,0,0,0,1.19,1.67c.34.37.79,1.13,1.3,1.24,1,.21,2.11-1.06,2.69-1.75A8,8,0,0,0,30.62,63c-1.07-3.18-2.15-6.34-3.39-9.46-1-2.59-2.13-5.16-3.31-7.69a1.59,1.59,0,0,1,0-1.41C25.1,42.2,26.53,40,27.73,37.77ZM14.16,61.49c-.17.13-.32.3-.5.42-1.07.71-.51-.9-.36-1.29a34.27,34.27,0,0,1,2.77-4.85c.59-1,1.19-1.91,1.81-2.85l.9-1.37a11,11,0,0,0,.73-1.18,13.59,13.59,0,0,0,.68,1.29c.26.54.51,1.09.75,1.64s.56,1.39.83,2.09C18.69,57.83,14.85,61,14.16,61.49Z"/></g></g></svg>