<svg xmlns="http://www.w3.org/2000/svg" viewBox="0 0 64.47 72.52"><defs><style>.cls-1,.cls-2{fill:#231f20;}.cls-2{font-size:10px;font-family:BelloCapsPro-Regular, Bello Caps Pro;}</style></defs><g id="Layer_2" data-name="Layer 2"><g id="Layer_1-2" data-name="Layer 1"><path class="cls-1" d="M42,37.77c1.11-2.1,1.52-3,2.56-5.09a23.83,23.83,0,0,0,1.91-4.49,6.8,6.8,0,0,0-.16-3.61s-.61-.38-.87-.21a1.81,1.81,0,0,0-.43.52c-1.38,2.18-2.74,4.41-3.91,6.71s-4,8-4.45,8.72c-.12.18-.43.82-.81.84s-.7-.62-.91-1c-.31-.55-.63-1.1-1-1.65q-1-1.65-2-3.27c-1-1.55-1.93-3.11-2.95-4.63-.5-.75-1-1.49-1.55-2.21a7,7,0,0,0-1.93-2.07,11.32,11.32,0,0,1-2.38-1.23c-.07-.51,1.4-1.24,1.69-1.53,5.85-5.88,7.92-8.81,12.27-13.81C39,7.65,41,4.13,40,1.13A1.43,1.43,0,0,0,38.75,0a3,3,0,0,0-1,.25c-.35.13-.55.2-1.71.66l-.3.12c-1.52.6-1.75.6-2.31.9-.89.48-1.11.79-1.17,1.09a1.26,1.26,0,0,0,.22.94c.47.75,1.52,1,1.39,2a5.18,5.18,0,0,1-.82,1.9c-.59,1-1.31,1.83-2,2.76-1.21,1.69-2.56,3.28-3.82,4.93s-2.6,3.59-4,5.28A16.79,16.79,0,0,1,21,23.24c-.69.54-1.37.3-1.23-.64.68-4.6,1-9.33,2-13.89a65.74,65.74,0,0,0,1-6.56c.07-.68-.12-1-.83-.65s-1.28.73-1.9,1.14a9.46,9.46,0,0,0-2.7,2.49c-1.24,2-1,4.47-1.11,6.72-.13,2.63-.36,5.25-.6,7.87-.1,1.05-.2,2.09-.29,3.14-.13,1.37.48,2.72.24,4.09-.15.87-.34,1.73-.43,2.6a104.65,104.65,0,0,0-.75,11.1,24.27,24.27,0,0,0-.07,3.19,2.29,2.29,0,0,0,.51,1.43c.46.43,1.25.09,1.71-.18A3.81,3.81,0,0,0,18,43.57a4.64,4.64,0,0,0,.44-1.14,17.91,17.91,0,0,0,.25-3.8c0-1.32,0-2.63.07-3.94s.11-2.35.25-3.52c.1-.84.13-3.75,1.64-2.45a19.73,19.73,0,0,1,3,3.34C25,34,26.35,36,27.61,38s2.61,4.22,3.76,6.4c.08.15.18.29.26.44.33.61-.08.93-.38,1.42l-.77,1.26c-.51.81-1,1.61-1.55,2.42-1.32,2-2.71,4-4.17,5.92-.85,1.13-1.69,2.25-2.47,3.43a13.34,13.34,0,0,0-2.2,4.57A12,12,0,0,0,20,67.18c.08,1.21.19,3.57,2.07,3a3.83,3.83,0,0,0,1.43-.94l4.15-3.75c.54-.48,5.4-5.3,8.89-8.94l0,.05a57,57,0,0,1,2.05,7,7.87,7.87,0,0,1-.28,3.23,4.82,4.82,0,0,0,.06,2.74,6.39,6.39,0,0,0,1.2,1.67c.33.37.78,1.13,1.3,1.24,1,.21,2.11-1.06,2.68-1.75A8,8,0,0,0,44.89,63c-1.07-3.18-2.15-6.34-3.39-9.46-1-2.59-2.14-5.16-3.31-7.69a1.62,1.62,0,0,1,0-1.41C39.37,42.2,40.8,40,42,37.77ZM28.43,61.49c-.18.13-.32.3-.51.42-1.06.71-.51-.9-.35-1.29a34.27,34.27,0,0,1,2.77-4.85q.89-1.44,1.8-2.85c.3-.46.6-.92.91-1.37a9.54,9.54,0,0,0,.72-1.18c0,.06.64,1.19.69,1.29.25.54.5,1.09.74,1.64s.57,1.39.84,2.09C33,57.83,29.11,61,28.43,61.49Z"/><text class="cls-2" transform="translate(0 53.03)">Kenny</text><text class="cls-2" transform="translate(43.62 53.03)">Xiong</text></g></g></svg>